<svg xmlns="http://www.w3.org/2000/svg" viewBox="0 0 800 800">
  <rect width="800" height="800" fill="#f1f5f9"/>
  <circle cx="400" cy="380" r="210" fill="none" stroke="#475569" stroke-width="42"/>
  <circle cx="400" cy="380" r="130" fill="none" stroke="#94a3b8" stroke-width="22"/>
  <!-- Cylindrical rollers -->
  <rect x="385" y="170" width="30" height="50" rx="8" fill="#94a3b8" stroke="#1e293b" stroke-width="4"/>
  <rect x="540" y="260" width="50" height="30" rx="8" fill="#94a3b8" stroke="#1e293b" stroke-width="4" transform="rotate(50 565 275)"/>
  <rect x="575" y="365" width="50" height="30" rx="8" fill="#94a3b8" stroke="#1e293b" stroke-width="4"/>
  <rect x="540" y="470" width="50" height="30" rx="8" fill="#94a3b8" stroke="#1e293b" stroke-width="4" transform="rotate(-50 565 485)"/>
  <rect x="385" y="555" width="30" height="50" rx="8" fill="#94a3b8" stroke="#1e293b" stroke-width="4"/>
  <rect x="210" y="470" width="50" height="30" rx="8" fill="#94a3b8" stroke="#1e293b" stroke-width="4" transform="rotate(50 235 485)"/>
  <rect x="175" y="365" width="50" height="30" rx="8" fill="#94a3b8" stroke="#1e293b" stroke-width="4"/>
  <rect x="210" y="260" width="50" height="30" rx="8" fill="#94a3b8" stroke="#1e293b" stroke-width="4" transform="rotate(-50 235 275)"/>
  <circle cx="400" cy="380" r="44" fill="#334155"/>
  <text x="400" y="740" text-anchor="middle" font-family="Arial,sans-serif" font-size="44" font-weight="700" fill="#0f172a">ROLLER BEARINGS</text>
</svg>
